<?xml version="1.0" encoding="utf-8"?>
<!-- Generator: Adobe Illustrator 15.0.0, SVG Export Plug-In . SVG Version: 6.00 Build 0)  -->
<!DOCTYPE svg PUBLIC "-//W3C//DTD SVG 1.1//EN" "http://www.w3.org/Graphics/SVG/1.1/DTD/svg11.dtd">
<svg version="1.1" id="Layer_1" xmlns="http://www.w3.org/2000/svg" xmlns:xlink="http://www.w3.org/1999/xlink" x="0px" y="0px"
	 width="120px" height="120px" viewBox="0 0 120 120" enable-background="new 0 0 120 120" xml:space="preserve">
<g>
	<g>
		<g>
			<path fill="#BCDD5A" d="M120,107.885c0,6.691-5.516,12.115-12.32,12.115H12.321C5.516,120,0,114.576,0,107.885V12.116
				C0,5.424,5.516,0,12.321,0h95.357C114.484,0,120,5.424,120,12.116V107.885z"/>
		</g>
	</g>
</g>
<g id="graphics">
	<polygon fill="#8EC4EA" points="58.913,82.292 84.721,64.229 108,60.799 108,47.912 84.514,40.257 59.505,66.07 39.303,63.393 
		18,72.734 18,90.691 39.18,69.514 	"/>
	<polygon fill="#FFFFFF" points="57.545,32.104 38.114,48.4 18,39.46 18,69.414 38.86,60.265 58.387,62.855 83.65,36.778 
		108,44.714 108,35.354 83.764,19.581 	"/>
	<polygon fill="#FF7900" points="85.875,67.131 58.979,85.958 39.591,73.4 18,94.992 18,102.979 108,102.979 108,63.872 	"/>
</g>
</svg>