<?xml version="1.0" encoding="utf-8"?>
<!-- Generator: Adobe Illustrator 15.0.0, SVG Export Plug-In . SVG Version: 6.00 Build 0)  -->
<!DOCTYPE svg PUBLIC "-//W3C//DTD SVG 1.1//EN" "http://www.w3.org/Graphics/SVG/1.1/DTD/svg11.dtd">
<svg version="1.1" id="Layer_1" xmlns="http://www.w3.org/2000/svg" xmlns:xlink="http://www.w3.org/1999/xlink" x="0px" y="0px"
	 width="120px" height="120px" viewBox="0 0 120 120" enable-background="new 0 0 120 120" xml:space="preserve">
<g>
	<g>
		<g>
			<path fill="#F78B1F" d="M120,107.885c0,6.691-5.516,12.115-12.321,12.115H12.321C5.516,120,0,114.576,0,107.885V12.116
				C0,5.424,5.516,0,12.321,0h95.357C114.484,0,120,5.424,120,12.116V107.885z"/>
		</g>
	</g>
</g>
<rect x="44.333" y="90.625" fill="#FFFFFF" width="16.875" height="11.25"/>
<rect x="38.708" y="73.75" fill="#FFFFFF" width="22.5" height="11.25"/>
<rect x="33.083" y="56.875" fill="#FFFFFF" width="28.125" height="11.25"/>
<rect x="27.458" y="40" fill="#FFFFFF" width="33.75" height="11.25"/>
<rect x="21.833" y="23.125" fill="#FFFFFF" width="39.375" height="11.25"/>
<rect x="61.458" y="90.625" fill="#FFFFFF" width="16.875" height="11.25"/>
<rect x="61.458" y="73.75" fill="#FFFFFF" width="22.5" height="11.25"/>
<rect x="61.458" y="56.875" fill="#FFFFFF" width="28.125" height="11.25"/>
<rect x="61.458" y="40" fill="#FFFFFF" width="33.75" height="11.25"/>
<rect x="61.458" y="23.125" fill="#FFFFFF" width="39.375" height="11.25"/>
</svg>