<?xml version="1.0" ?><!DOCTYPE svg  PUBLIC '-//W3C//DTD SVG 1.1//EN'  'http://www.w3.org/Graphics/SVG/1.1/DTD/svg11.dtd'><svg enable-background="new 0 0 512 512" height="512px" id="Layer_1" version="1.1" viewBox="0 0 512 512" width="512px" xml:space="preserve" xmlns="http://www.w3.org/2000/svg" xmlns:xlink="http://www.w3.org/1999/xlink"><g><g><path d="M413.857,386.019L235.545,275.888L210.143,67.866c-44.883,5.446-88.34,25.381-122.789,59.83    c-81.844,81.843-81.844,214.542,0,296.385s214.541,81.843,296.385,0C395.473,412.344,405.49,399.548,413.857,386.019z" fill="#EC6D61"/></g><path d="M424.651,117.201c-9.386-9.386-19.444-17.682-30.018-24.915l-8.512,12.472L277.346,265.563l177.453,109.978   C504.807,294.729,494.763,187.31,424.651,117.201z" fill="#35495C"/><path d="M378.937,61.188c-42.251-27.958-92.396-39-140.882-33.116l24.969,204.47L378.937,61.188z" fill="#5D6D7E"/><linearGradient gradientUnits="userSpaceOnUse" id="SVGID_1_" x1="319.2178" x2="190.2176" y1="198.1919" y2="513.1923"><stop offset="0" style="stop-color:#000000"/><stop offset="1" style="stop-color:#000000;stop-opacity:0"/></linearGradient><path d="M413.857,386.019L235.545,275.888L212.094,83.846L65.603,398.562   c6.464,8.931,13.706,17.474,21.751,25.519c81.844,81.843,214.541,81.843,296.385,0C395.473,412.344,405.49,399.548,413.857,386.019   z" fill="url(#SVGID_1_)" opacity="0.1"/><linearGradient gradientUnits="userSpaceOnUse" id="SVGID_2_" x1="396.9297" x2="258.93" y1="279.4629" y2="432.4626"><stop offset="0" style="stop-color:#000000"/><stop offset="1" style="stop-color:#000000;stop-opacity:0"/></linearGradient><path d="M180.282,478.076c70.175,19.11,148.345,1.115,203.456-53.996   c11.734-11.736,21.752-24.532,30.119-38.062l-148.137-91.494L180.282,478.076z" fill="url(#SVGID_2_)" opacity="0.1"/></g></svg>