<?xml version="1.0" encoding="utf-8"?>
<!-- Generator: Adobe Illustrator 15.0.0, SVG Export Plug-In . SVG Version: 6.00 Build 0)  -->
<!DOCTYPE svg PUBLIC "-//W3C//DTD SVG 1.1//EN" "http://www.w3.org/Graphics/SVG/1.1/DTD/svg11.dtd">
<svg version="1.1" id="Layer_1" xmlns="http://www.w3.org/2000/svg" xmlns:xlink="http://www.w3.org/1999/xlink" x="0px" y="0px"
	 width="120px" height="120px" viewBox="0 0 120 120" enable-background="new 0 0 120 120" xml:space="preserve">
<g>
	<path fill="#FF7900" d="M20.707,35.646c1.843-2.977,4.054-5.79,6.638-8.374c6.258-6.258,13.864-10.344,21.884-12.262L46.935,1.388
		C36.182,3.78,25.96,9.156,17.595,17.522c-3.305,3.305-6.143,6.898-8.515,10.701L20.707,35.646z"/>
	<path fill="#F0D27A" d="M54.363,14.084C67.19,12.511,80.549,16.31,90.8,25.481l9.761-9.761C87.018,3.289,69.151-1.792,52.073,0.479
		L54.363,14.084z"/>
	<path fill="#4C88BE" d="M104.25,19.41l-9.761,9.761c16.231,18.145,15.635,46.027-1.792,63.455
		c-18.047,18.047-47.306,18.047-65.353,0c-0.638-0.638-1.251-1.291-1.843-1.956l-10.519,8.919c0.838,0.948,1.706,1.88,2.612,2.787
		c23.431,23.431,61.421,23.432,84.853,0C125.261,79.562,125.859,42.951,104.25,19.41z"/>
	<path fill="#80C31C" d="M22.252,86.584c-9.688-13.705-11.036-31.499-4.042-46.341L6.514,32.775
		c-10.13,19.937-8.403,44.347,5.187,62.755L22.252,86.584z"/>
</g>
</svg>