<?xml version="1.0" encoding="utf-8"?>
<!-- Generator: Adobe Illustrator 15.0.0, SVG Export Plug-In . SVG Version: 6.00 Build 0)  -->
<!DOCTYPE svg PUBLIC "-//W3C//DTD SVG 1.1//EN" "http://www.w3.org/Graphics/SVG/1.1/DTD/svg11.dtd">
<svg version="1.1" id="Layer_1" xmlns="http://www.w3.org/2000/svg" xmlns:xlink="http://www.w3.org/1999/xlink" x="0px" y="0px"
	 width="120px" height="120px" viewBox="0 0 120 120" enable-background="new 0 0 120 120" xml:space="preserve">
<path fill="#5095CE" d="M120,107.885c0,6.691-5.516,12.115-12.321,12.115H12.321C5.516,120,0,114.576,0,107.885V12.116
	C0,5.424,5.516,0,12.321,0h95.357C114.484,0,120,5.424,120,12.116V107.885z"/>
<g>
	<path fill="#F2F5EE" d="M57.075,43.585c1.034,0,1.871-0.53,1.871-1.183V31.308c0-0.653-0.837-1.183-1.871-1.183H20.261
		c-1.03,0-1.868,0.529-1.868,1.183v11.094c0,0.653,0.838,1.183,1.868,1.183H57.075z"/>
	<path fill="#80C31C" d="M94.701,66.505c2.041,0,3.692-0.53,3.692-1.184V54.228c0-0.653-1.651-1.183-3.692-1.183H22.08
		c-2.035,0-3.687,0.53-3.687,1.183v11.094c0,0.653,1.651,1.184,3.687,1.184H94.701z"/>
	<path fill="#FF7900" d="M80.396,89.424c1.655,0,2.996-0.53,2.996-1.183V77.146c0-0.653-1.341-1.183-2.996-1.183H21.39
		c-1.654,0-2.997,0.529-2.997,1.183v11.095c0,0.652,1.343,1.183,2.997,1.183H80.396L80.396,89.424z"/>
</g>
</svg>